<?xml version="1.0" encoding="utf-8"?>
<!-- Generator: Adobe Illustrator 14.0.0, SVG Export Plug-In  -->
<!DOCTYPE svg PUBLIC "-//W3C//DTD SVG 1.1//EN" "http://www.w3.org/Graphics/SVG/1.1/DTD/svg11.dtd" [
	<!ENTITY ns_flows "http://ns.adobe.com/Flows/1.0/">
]>
<svg version="1.1"
	 xmlns="http://www.w3.org/2000/svg" xmlns:xlink="http://www.w3.org/1999/xlink" xmlns:a="http://ns.adobe.com/AdobeSVGViewerExtensions/3.0/"
	 x="0px" y="0px" width="1108px" height="264px" viewBox="-2.587 -1.863 1108 264" enable-background="new -2.587 -1.863 1108 264"
	 xml:space="preserve">
<defs>
</defs>
<polygon fill="#FFFFFF" points="6.638,8.12 0,8.12 0,203.915 126.604,203.915 126.604,197.834 6.638,197.834 "/>
<path fill="#FFFFFF" d="M192.25,101.587c-46.405-9.442-62.852-21.425-62.852-45.789V55.24c0-21.545,21.195-43.831,56.665-43.831
	c22.414,0,44.165,7.507,62.901,21.71l0.197,0.149l4.212-5.415l-0.2-0.153C234.057,13.066,211.044,5.33,186.62,5.33
	c-35.809,0-63.86,22.046-63.86,50.189v0.558c0,27.381,18.751,41.843,66.879,51.58c47.022,9.563,63.688,21.765,63.688,46.625v0.558
	c0,26.956-24.563,45.783-59.733,45.783c-27.653,0-52.966-10.395-73.201-30.061l-0.177-0.172l-4.82,4.821l0.187,0.177
	c21.641,20.486,48.424,31.314,77.453,31.314c39.407,0,66.929-21.441,66.929-52.143v-0.558
	C259.966,126.19,240.98,111.494,192.25,101.587z"/>
<polygon fill="#FFFFFF" points="273.36,197.834 273.36,108.499 391.653,108.499 391.653,102.419 273.36,102.419 273.36,14.2 
	403.65,14.2 403.65,8.12 266.723,8.12 266.723,203.915 405.044,203.915 405.044,197.834 "/>
<path fill="#FFFFFF" d="M399.497,106.575v-0.558c0-56.915,43.802-101.553,102.948-101.553c39.896,0,65.563,16.74,82.86,40.733
	l-40.732,31.526c-11.16-13.949-23.994-22.877-42.687-22.877c-27.341,0-46.591,23.156-46.591,51.613v0.558
	c0,29.294,19.25,52.171,46.591,52.171c20.367,0,32.363-9.485,44.081-23.714l40.732,29.015
	c-18.413,25.389-43.243,44.081-86.487,44.081C444.415,207.57,399.497,164.884,399.497,106.575z"/>
<path fill="#FFFFFF" d="M591.447,0h55.24v39.059h-55.24V0z M592.563,52.729h53.008v150.935h-53.008V52.729z"/>
<path fill="#FFFFFF" d="M669.005,156.793V95.415H651.15V52.729h17.855V14.508h53.008v38.222h35.153v42.686h-35.153v51.056
	c0,10.602,4.743,15.064,14.508,15.064c6.975,0,13.671-1.952,20.088-5.021v41.57c-9.486,5.301-22.041,8.648-36.827,8.648
	C687.977,206.733,669.005,192.784,669.005,156.793z"/>
<path fill="#FFFFFF" d="M761.912,0h55.24v39.059h-55.24V0z M763.028,52.729h53.008v150.935h-53.008V52.729z"/>
<path fill="#FFFFFF" d="M822.73,128.895v-0.558c0-44.081,31.526-78.955,76.165-78.955c52.171,0,76.164,38.222,76.164,82.582
	c0,3.348,0,7.254-0.278,10.881H873.786c4.185,16.46,16.182,24.83,32.642,24.83c12.555,0,22.599-4.743,33.479-15.345l29.294,24.272
	c-14.508,18.413-35.432,30.689-65.563,30.689C856.208,207.292,822.73,175.764,822.73,128.895z M925.399,115.782
	c-1.953-16.74-11.718-27.341-26.226-27.341c-13.949,0-23.435,10.881-26.225,27.341H925.399z"/>
<path fill="#FFFFFF" d="M970.877,184.692l19.809-32.084c17.297,11.439,36.269,17.299,51.893,17.299
	c9.206,0,13.392-2.791,13.392-8.092v-0.558c0-5.858-8.37-8.37-24.272-12.833c-29.853-7.813-53.566-17.855-53.566-48.266V99.6
	c0-32.084,25.667-49.939,60.541-49.939c22.04,0,44.918,6.417,62.215,17.577l-18.134,33.479c-15.624-8.649-32.643-13.95-44.639-13.95
	c-8.091,0-12.276,3.069-12.276,7.254v0.558c0,5.859,8.649,8.649,24.552,13.392c29.852,8.37,53.566,18.692,53.566,47.987v0.558
	c0,33.2-24.83,50.498-61.657,50.498C1016.911,207.012,991.801,199.758,970.877,184.692z"/>
<path fill="#FFFFFF" d="M13.673,232.261L1.517,259.125H4.85l3.133-6.984h14.22l3.096,6.984h3.484l-12.156-26.864H13.673z
	 M20.922,249.211H9.265l5.847-13.046L20.922,249.211z"/>
<polygon fill="#FFFFFF" points="50.85,253.391 34.425,232.498 31.408,232.45 31.408,259.125 34.565,259.125 34.565,237.692 
	51.405,259.078 54.006,259.125 54.006,232.45 50.85,232.45 "/>
<rect x="66.478" y="232.45" fill="#FFFFFF" width="3.232" height="26.676"/>
<polygon fill="#FFFFFF" points="93.242,253.391 76.817,232.498 73.8,232.45 73.8,259.125 76.957,259.125 76.957,237.692 
	93.797,259.078 96.398,259.125 96.398,232.45 93.242,232.45 "/>
<polygon fill="#FFFFFF" points="99.47,235.456 108.341,235.456 108.341,259.125 111.611,259.125 111.611,235.456 120.482,235.456 
	120.482,232.45 99.47,232.45 "/>
<polygon fill="#FFFFFF" points="126.787,247.159 141.207,247.159 141.207,244.19 126.787,244.19 126.787,235.418 142.906,235.418 
	142.906,232.45 123.554,232.45 123.554,259.125 143.095,259.125 143.095,256.157 126.787,256.157 "/>
<path fill="#FFFFFF" d="M167.746,240.426c0-2.078-0.737-3.96-2.075-5.298c-1.728-1.728-4.427-2.679-7.601-2.679h-11.488v26.676
	h3.232v-10.269h7.362l7.626,10.219l4.012,0.05l-8.146-10.837C165.169,247.403,167.746,244.573,167.746,240.426z M149.814,235.456
	h8.029c4.153,0,6.632,1.9,6.632,5.16c0,3.226-2.618,5.311-6.67,5.311h-7.991V235.456z"/>
<polygon fill="#FFFFFF" points="191.051,253.391 174.626,232.498 171.61,232.45 171.61,259.125 174.767,259.125 174.767,237.692 
	191.606,259.078 194.208,259.125 194.208,232.45 191.051,232.45 "/>
<path fill="#FFFFFF" d="M208.989,232.261l-12.156,26.864h3.333l3.133-6.984h14.221l3.095,6.984h3.484l-12.156-26.864H208.989z
	 M216.238,249.211h-11.657l5.847-13.046L216.238,249.211z"/>
<polygon fill="#FFFFFF" points="218.042,235.456 226.913,235.456 226.913,259.125 230.183,259.125 230.183,235.456 239.054,235.456 
	239.054,232.45 218.042,232.45 "/>
<rect x="242.39" y="232.45" fill="#FFFFFF" width="3.232" height="26.676"/>
<path fill="#FFFFFF" d="M263.315,231.997c-7.648,0-13.64,6.058-13.64,13.866c0,7.819,5.832,13.716,13.564,13.716
	c7.648,0,13.639-6.058,13.603-13.702l0.037-0.165C276.879,237.893,271.048,231.997,263.315,231.997z M263.315,256.573
	c-5.772,0-10.294-4.737-10.294-10.861c0-6.105,4.393-10.709,10.219-10.709c5.772,0,10.294,4.737,10.294,10.86
	C273.534,251.968,269.141,256.573,263.315,256.573z"/>
<polygon fill="#FFFFFF" points="300.109,253.391 283.685,232.498 280.668,232.45 280.668,259.125 283.825,259.125 283.825,237.692 
	300.665,259.078 303.266,259.125 303.266,232.45 300.109,232.45 "/>
<path fill="#FFFFFF" d="M318.047,232.261l-12.155,26.864h3.333l3.133-6.984h14.22l3.096,6.984h3.484l-12.156-26.864H318.047z
	 M325.296,249.211H313.64l5.847-13.046L325.296,249.211z"/>
<polygon fill="#FFFFFF" points="339.015,232.45 335.783,232.45 335.783,259.125 353.888,259.125 353.888,256.12 339.015,256.12 "/>
<path fill="#FFFFFF" d="M384.857,252.793c-2.375,2.269-4.72,3.779-8.446,3.779c-5.667,0-10.105-4.737-10.105-10.861
	c0-6.105,4.344-10.709,10.105-10.709c3.933,0,6.459,1.918,8.22,3.59l0.091,0.087l2.209-2.373l-0.09-0.085
	c-2.328-2.194-5.197-4.225-10.392-4.225c-7.563,0-13.488,6.058-13.488,13.866c0,7.819,5.75,13.716,13.375,13.716
	c5.324,0,8.376-2.366,10.659-4.682l0.088-0.09l-2.139-2.097L384.857,252.793z"/>
<polygon fill="#FFFFFF" points="392.958,247.159 407.379,247.159 407.379,244.19 392.958,244.19 392.958,235.418 409.078,235.418 
	409.078,232.45 389.726,232.45 389.726,259.125 409.266,259.125 409.266,256.157 392.958,256.157 "/>
<polygon fill="#FFFFFF" points="432.195,253.391 415.771,232.498 412.753,232.45 412.753,259.125 415.911,259.125 415.911,237.692 
	432.75,259.078 435.351,259.125 435.351,232.45 432.195,232.45 "/>
<polygon fill="#FFFFFF" points="438.423,235.456 447.294,235.456 447.294,259.125 450.565,259.125 450.565,235.456 459.436,235.456 
	459.436,232.45 438.423,232.45 "/>
<path fill="#FFFFFF" d="M483.671,240.426c0-2.077-0.737-3.959-2.076-5.298c-1.728-1.728-4.427-2.679-7.601-2.679h-11.487v26.676
	h3.232v-10.269h7.362l7.625,10.219l4.013,0.05l-8.146-10.837C481.095,247.403,483.671,244.573,483.671,240.426z M465.74,235.456
	h8.029c4.153,0,6.632,1.9,6.632,5.16c0,3.226-2.618,5.311-6.67,5.311h-7.991V235.456z"/>
<polygon fill="#FFFFFF" points="490.768,247.159 505.188,247.159 505.188,244.19 490.768,244.19 490.768,235.418 506.887,235.418 
	506.887,232.45 487.536,232.45 487.536,259.125 507.076,259.125 507.076,256.157 490.768,256.157 "/>
<path fill="#FFFFFF" d="M527.437,244.231c-5.98-1.282-7.074-2.693-7.074-5.088c0-2.438,2.262-4.141,5.5-4.141
	c2.771,0,5.168,0.902,7.546,2.841l0.101,0.082l1.889-2.503l-0.095-0.076c-2.858-2.294-5.659-3.273-9.365-3.273
	c-5.104,0-8.808,3.085-8.808,7.41c0,4.173,2.515,6.345,8.97,7.748c5.693,1.2,6.772,2.647,6.772,4.975
	c0,2.571-2.371,4.367-5.765,4.367c-3.464,0-6.065-1.073-8.976-3.706l-0.096-0.087l-2.011,2.382l0.09,0.08
	c3.254,2.907,6.711,4.261,10.879,4.261c5.386,0,9.147-3.125,9.147-7.675C536.142,247.833,533.539,245.56,527.437,244.231z"/>
<path fill="#FFFFFF" d="M558.317,247.939c0,5.463-2.857,8.596-7.841,8.596c-5.054,0-7.953-3.202-7.953-8.784V232.45h-3.232v15.489
	c0,7.264,4.153,11.601,11.11,11.601c6.98,0,11.147-4.421,11.147-11.826V232.45h-3.231V247.939z"/>
<path fill="#FFFFFF" d="M576.108,232.45h-10.016v26.676h3.232v-9.324h6.292c5.229,0,10.507-2.712,10.507-8.846
	C586.124,235.789,582.192,232.45,576.108,232.45z M569.325,235.456h6.557c4.431,0,6.972,2.046,6.972,5.688
	c0,3.402-2.862,5.688-7.123,5.688h-6.405V235.456z"/>
<path fill="#FFFFFF" d="M599.06,232.45h-10.016v26.676h3.232v-9.324h6.292c5.229,0,10.507-2.712,10.507-8.846
	C609.076,235.789,605.144,232.45,599.06,232.45z M592.277,235.456h6.557c4.431,0,6.972,2.046,6.972,5.688
	c0,3.402-2.862,5.688-7.123,5.688h-6.405V235.456z"/>
<path fill="#FFFFFF" d="M624.655,231.997c-7.648,0-13.64,6.058-13.64,13.866c0,7.819,5.831,13.716,13.563,13.716
	c7.648,0,13.64-6.058,13.604-13.702l0.036-0.165C638.218,237.893,632.387,231.997,624.655,231.997z M624.655,256.573
	c-5.772,0-10.295-4.737-10.295-10.861c0-6.105,4.394-10.709,10.219-10.709c5.772,0,10.294,4.737,10.294,10.86
	C634.873,251.968,630.48,256.573,624.655,256.573z"/>
<path fill="#FFFFFF" d="M662.605,240.426c0-2.077-0.737-3.959-2.075-5.298c-1.729-1.728-4.428-2.679-7.602-2.679h-11.487v26.676
	h3.232v-10.269h7.362l7.625,10.219l4.013,0.05l-8.146-10.837C660.029,247.403,662.605,244.573,662.605,240.426z M644.673,235.456
	h8.029c4.152,0,6.632,1.9,6.632,5.16c0,3.226-2.618,5.311-6.67,5.311h-7.991V235.456z"/>
<polygon fill="#FFFFFF" points="664.581,235.456 673.452,235.456 673.452,259.125 676.722,259.125 676.722,235.456 685.593,235.456 
	685.593,232.45 664.581,232.45 "/>
<polygon fill="#FFFFFF" points="691.898,247.159 706.319,247.159 706.319,244.19 691.898,244.19 691.898,235.418 708.017,235.418 
	708.017,232.45 688.666,232.45 688.666,259.125 708.206,259.125 708.206,256.157 691.898,256.157 "/>
<path fill="#FFFFFF" d="M720.991,232.45h-9.298v26.676h9.298c8.21,0,14.169-5.609,14.169-13.414
	C735.16,238.027,729.201,232.45,720.991,232.45z M720.991,256.12h-6.065v-20.664h6.065c6.373,0,10.823,4.249,10.823,10.407
	C731.814,251.902,727.364,256.12,720.991,256.12z"/>
<path fill="#FFFFFF" d="M762.335,245.313c1.877-0.897,3.967-2.671,3.967-6.17c0-1.674-0.583-3.125-1.736-4.317
	c-1.595-1.555-4.014-2.376-6.995-2.376h-11.375v26.676h11.865c5.992,0,9.714-2.811,9.714-7.411
	C767.775,248.638,765.946,246.486,762.335,245.313z M757.08,244.228h-7.689v-8.849h7.916c3.586,0,5.727,1.563,5.727,4.255
	C763.033,242.51,760.807,244.228,757.08,244.228z M749.39,247.121h8.218c4.447,0,6.896,1.564,6.896,4.48
	c0,2.834-2.44,4.594-6.368,4.594h-8.746V247.121z"/>
<polygon fill="#FFFFFF" points="790.044,232.45 781.126,245.565 772.284,232.45 768.356,232.45 779.454,248.543 779.454,259.125 
	782.723,259.125 782.701,248.577 793.822,232.45 "/>
<path fill="#FFFFFF" d="M812.495,232.45h-9.298v26.676h9.298c8.21,0,14.169-5.609,14.169-13.414
	C826.664,238.027,820.705,232.45,812.495,232.45z M812.495,256.12h-6.065v-20.664h6.065c6.373,0,10.823,4.249,10.823,10.407
	C823.318,251.902,818.868,256.12,812.495,256.12z"/>
<polygon fill="#FFFFFF" points="833.685,247.159 848.106,247.159 848.106,244.19 833.685,244.19 833.685,235.418 849.804,235.418 
	849.804,232.45 830.453,232.45 830.453,259.125 849.993,259.125 849.993,256.157 833.685,256.157 "/>
<path fill="#FFFFFF" d="M872.09,247.939c0,5.463-2.857,8.596-7.84,8.596c-5.055,0-7.953-3.202-7.953-8.784V232.45h-3.232v15.489
	c0,7.264,4.153,11.601,11.11,11.601c6.98,0,11.147-4.421,11.147-11.826V232.45h-3.232V247.939z"/>
<polygon fill="#FFFFFF" points="877.979,235.456 886.85,235.456 886.85,259.125 890.121,259.125 890.121,235.456 898.992,235.456 
	898.992,232.45 877.979,232.45 "/>
<path fill="#FFFFFF" d="M911.691,244.231c-5.98-1.282-7.074-2.693-7.074-5.088c0-2.438,2.262-4.141,5.5-4.141
	c2.771,0,5.169,0.902,7.546,2.841l0.101,0.082l1.889-2.503l-0.095-0.076c-2.857-2.294-5.658-3.273-9.365-3.273
	c-5.104,0-8.808,3.085-8.808,7.41c0,4.173,2.515,6.345,8.971,7.748c5.692,1.2,6.771,2.647,6.771,4.975
	c0,2.571-2.37,4.367-5.765,4.367c-3.465,0-6.064-1.073-8.976-3.706l-0.096-0.087l-2.012,2.382l0.091,0.08
	c3.254,2.907,6.711,4.261,10.879,4.261c5.386,0,9.147-3.125,9.147-7.675C920.396,247.833,917.792,245.56,911.691,244.231z"/>
<path fill="#FFFFFF" d="M944.685,252.793c-2.375,2.269-4.72,3.779-8.446,3.779c-5.667,0-10.105-4.737-10.105-10.861
	c0-6.105,4.345-10.709,10.105-10.709c3.934,0,6.459,1.918,8.22,3.59l0.092,0.087l2.208-2.373l-0.09-0.085
	c-2.327-2.194-5.197-4.225-10.392-4.225c-7.563,0-13.488,6.058-13.488,13.866c0,7.819,5.75,13.716,13.375,13.716
	c5.323,0,8.376-2.366,10.659-4.682l0.088-0.09l-2.139-2.097L944.685,252.793z"/>
<polygon fill="#FFFFFF" points="967.786,244.19 952.785,244.19 952.785,232.45 949.552,232.45 949.552,259.125 952.785,259.125 
	952.785,247.234 967.786,247.234 967.786,259.125 971.018,259.125 971.018,232.45 967.786,232.45 "/>
<polygon fill="#FFFFFF" points="977.7,247.159 992.12,247.159 992.12,244.19 977.7,244.19 977.7,235.418 993.819,235.418 
	993.819,232.45 974.467,232.45 974.467,259.125 994.007,259.125 994.007,256.157 977.7,256.157 "/>
<path fill="#FFFFFF" d="M1020.882,245.313c1.877-0.897,3.967-2.671,3.967-6.17c0-1.674-0.583-3.125-1.736-4.317
	c-1.595-1.555-4.014-2.376-6.995-2.376h-11.375v26.676h11.865c5.992,0,9.714-2.811,9.714-7.411
	C1026.322,248.638,1024.493,246.486,1020.882,245.313z M1015.626,244.228h-7.689v-8.849h7.916c3.586,0,5.727,1.563,5.727,4.255
	C1021.58,242.51,1019.354,244.228,1015.626,244.228z M1007.937,247.121h8.218c4.447,0,6.896,1.564,6.896,4.48
	c0,2.834-2.44,4.594-6.368,4.594h-8.746V247.121z"/>
<path fill="#FFFFFF" d="M1039.553,232.261l-12.075,26.688l-0.079,0.177h3.332l3.133-6.984h14.221l3.096,6.984h3.483l-12.154-26.864
	H1039.553z M1046.803,249.211h-11.656l5.847-13.046L1046.803,249.211z"/>
<polygon fill="#FFFFFF" points="1076.731,253.391 1060.307,232.498 1057.29,232.45 1057.29,259.125 1060.446,259.125 
	1060.446,237.692 1077.286,259.078 1079.887,259.125 1079.887,232.45 1076.731,232.45 "/>
<polygon fill="#FFFFFF" points="1094.124,244.135 1105.58,232.45 1101.341,232.488 1086.38,248.043 1086.38,232.45 1083.148,232.45 
	1083.148,259.125 1086.38,259.125 1086.344,251.991 1091.871,246.391 1101.937,259.079 1106.031,259.125 "/>
</svg>
