<?xml version="1.0" encoding="utf-8"?>
<!-- Generator: Adobe Illustrator 14.0.0, SVG Export Plug-In  -->
<!DOCTYPE svg PUBLIC "-//W3C//DTD SVG 1.1//EN" "http://www.w3.org/Graphics/SVG/1.1/DTD/svg11.dtd" [
	<!ENTITY ns_flows "http://ns.adobe.com/Flows/1.0/">
]>
<svg version="1.1"
	 xmlns="http://www.w3.org/2000/svg" xmlns:xlink="http://www.w3.org/1999/xlink" xmlns:a="http://ns.adobe.com/AdobeSVGViewerExtensions/3.0/"
	 x="0px" y="0px" width="142px" height="53px" viewBox="-1.604 -0.615 142 53" enable-background="new -1.604 -0.615 142 53"
	 xml:space="preserve">
<defs>
</defs>
<line fill="none" stroke="#FFFFFF" stroke-width="0.4" x1="41.205" y1="45.632" x2="78.153" y2="3.85"/>
<line fill="none" stroke="#FFFFFF" stroke-width="0.4" x1="45.634" y1="44.253" x2="81.661" y2="3.512"/>
<line fill="none" stroke="#FFFFFF" stroke-width="0.4" x1="50.062" y1="42.874" x2="85.167" y2="3.174"/>
<line fill="none" stroke="#FFFFFF" stroke-width="0.4" x1="54.489" y1="41.493" x2="88.672" y2="2.837"/>
<line fill="none" stroke="#FFFFFF" stroke-width="0.4" x1="58.917" y1="40.113" x2="92.18" y2="2.498"/>
<line fill="none" stroke="#FFFFFF" stroke-width="0.4" x1="63.344" y1="38.732" x2="95.687" y2="2.161"/>
<line fill="none" stroke="#FFFFFF" stroke-width="0.4" x1="67.773" y1="37.352" x2="99.192" y2="1.822"/>
<line fill="none" stroke="#FFFFFF" stroke-width="0.4" x1="72.202" y1="35.971" x2="102.699" y2="1.484"/>
<line fill="none" stroke="#FFFFFF" stroke-width="0.4" x1="76.63" y1="34.592" x2="106.205" y2="1.146"/>
<line fill="none" stroke="#FFFFFF" stroke-width="0.4" x1="81.058" y1="33.212" x2="109.712" y2="0.808"/>
<line fill="none" stroke="#FFFFFF" stroke-width="0.4" x1="85.485" y1="31.832" x2="113.219" y2="0.47"/>
<line fill="none" stroke="#FFFFFF" stroke-width="0.4" x1="89.952" y1="30.407" x2="116.726" y2="0.132"/>
<line fill="none" stroke="#FFFFFF" stroke-width="0.4" x1="94.342" y1="29.07" x2="119.57" y2="0.542"/>
<line fill="none" stroke="#FFFFFF" stroke-width="0.4" x1="98.77" y1="27.689" x2="121.598" y2="1.875"/>
<line fill="none" stroke="#FFFFFF" stroke-width="0.4" x1="103.198" y1="26.31" x2="123.625" y2="3.21"/>
<line fill="none" stroke="#FFFFFF" stroke-width="0.4" x1="107.626" y1="24.93" x2="125.652" y2="4.544"/>
<line fill="none" stroke="#FFFFFF" stroke-width="0.4" x1="111.949" y1="23.668" x2="127.681" y2="5.878"/>
<line fill="none" stroke="#FFFFFF" stroke-width="0.4" x1="116.481" y1="22.169" x2="129.707" y2="7.212"/>
<line fill="none" stroke="#FFFFFF" stroke-width="0.4" x1="120.91" y1="20.791" x2="131.735" y2="8.548"/>
<line fill="none" stroke="#FFFFFF" stroke-width="0.4" x1="125.338" y1="19.41" x2="133.763" y2="9.882"/>
<line fill="none" stroke="#FFFFFF" stroke-width="0.4" x1="129.767" y1="18.03" x2="135.789" y2="11.216"/>
<line fill="none" stroke="#FFFFFF" stroke-width="0.4" x1="134.194" y1="16.649" x2="137.818" y2="12.552"/>
<line fill="none" stroke="#FFFFFF" stroke-width="0.4" x1="138.621" y1="15.269" x2="139.845" y2="13.886"/>
<line fill="none" stroke="#FFFFFF" stroke-width="0.4" x1="6.858" y1="11.913" x2="8.192" y2="10.626"/>
<line fill="none" stroke="#FFFFFF" stroke-width="0.4" x1="7.924" y1="14.353" x2="11.431" y2="10.374"/>
<line fill="none" stroke="#FFFFFF" stroke-width="0.4" x1="8.83" y1="17.007" x2="15.228" y2="9.791"/>
<line fill="none" stroke="#FFFFFF" stroke-width="0.4" x1="9.763" y1="19.522" x2="18.469" y2="9.69"/>
<line fill="none" stroke="#FFFFFF" stroke-width="0.4" x1="10.706" y1="22.057" x2="21.911" y2="9.385"/>
<line fill="none" stroke="#FFFFFF" stroke-width="0.4" x1="11.67" y1="24.656" x2="25.479" y2="9.083"/>
<line fill="none" stroke="#FFFFFF" stroke-width="0.4" x1="12.611" y1="27.187" x2="29.048" y2="8.626"/>
<line fill="none" stroke="#FFFFFF" stroke-width="0.4" x1="13.552" y1="29.717" x2="32.466" y2="8.322"/>
<line fill="none" stroke="#FFFFFF" stroke-width="0.4" x1="14.512" y1="32.303" x2="36.035" y2="8.019"/>
<line fill="none" stroke="#FFFFFF" stroke-width="0.4" x1="15.453" y1="34.834" x2="39.451" y2="7.714"/>
<line fill="none" stroke="#FFFFFF" stroke-width="0.4" x1="16.404" y1="37.399" x2="43.097" y2="7.258"/>
<line fill="none" stroke="#FFFFFF" stroke-width="0.4" x1="17.349" y1="39.94" x2="46.667" y2="6.803"/>
<line fill="none" stroke="#FFFFFF" stroke-width="0.4" x1="18.304" y1="42.51" x2="50.159" y2="6.577"/>
<line fill="none" stroke="#FFFFFF" stroke-width="0.4" x1="19.245" y1="45.042" x2="53.576" y2="6.219"/>
<line fill="none" stroke="#FFFFFF" stroke-width="0.4" x1="20.194" y1="47.598" x2="57.082" y2="5.881"/>
<line fill="none" stroke="#FFFFFF" stroke-width="0.4" x1="21.142" y1="50.151" x2="60.588" y2="5.543"/>
<line fill="none" stroke="#FFFFFF" stroke-width="0.4" x1="23.453" y1="51.167" x2="64.095" y2="5.206"/>
<line fill="none" stroke="#FFFFFF" stroke-width="0.4" x1="27.879" y1="49.786" x2="67.601" y2="4.868"/>
<line fill="none" stroke="#FFFFFF" stroke-width="0.4" x1="32.31" y1="48.406" x2="71.109" y2="4.53"/>
<line fill="none" stroke="#FFFFFF" stroke-width="0.4" x1="36.736" y1="47.027" x2="74.614" y2="4.191"/>
<line fill="none" stroke="#FFFFFF" stroke-width="0.5" x1="1.479" y1="17.512" x2="1.479" y2="28.878"/>
<line fill="none" stroke="#FFFFFF" stroke-width="0.5" x1="0.25" y1="17.512" x2="0.25" y2="28.878"/>
<line fill="none" stroke="#FFFFFF" stroke-width="0.5" x1="2.707" y1="17.512" x2="2.707" y2="28.878"/>
<line fill="none" stroke="#FFFFFF" stroke-width="0.5" x1="0.053" y1="30.19" x2="13.876" y2="30.19"/>
<line fill="none" stroke="#FFFFFF" stroke-width="0.5" x1="0.053" y1="31.418" x2="13.876" y2="31.418"/>
<line fill="none" stroke="#FFFFFF" stroke-width="0.5" x1="0.053" y1="28.961" x2="13.876" y2="28.961"/>
<line fill="none" stroke="#FFFFFF" stroke-width="0.5" x1="12.404" y1="17.53" x2="12.404" y2="28.897"/>
<line fill="none" stroke="#FFFFFF" stroke-width="0.5" x1="11.176" y1="17.53" x2="11.176" y2="28.897"/>
<line fill="none" stroke="#FFFFFF" stroke-width="0.5" x1="13.632" y1="17.53" x2="13.632" y2="28.897"/>
<line fill="none" stroke="#FFFFFF" stroke-width="0.5" x1="31.371" y1="18.789" x2="42.711" y2="18.789"/>
<line fill="none" stroke="#FFFFFF" stroke-width="0.5" x1="31.371" y1="20.016" x2="42.711" y2="20.016"/>
<line fill="none" stroke="#FFFFFF" stroke-width="0.5" x1="31.371" y1="17.561" x2="42.711" y2="17.561"/>
<line fill="none" stroke="#FFFFFF" stroke-width="0.5" x1="35.404" y1="24.61" x2="42.711" y2="24.61"/>
<line fill="none" stroke="#FFFFFF" stroke-width="0.5" x1="35.404" y1="25.838" x2="42.711" y2="25.838"/>
<line fill="none" stroke="#FFFFFF" stroke-width="0.5" x1="35.404" y1="23.382" x2="42.711" y2="23.382"/>
<line fill="none" stroke="#FFFFFF" stroke-width="0.5" x1="31.371" y1="30.198" x2="42.717" y2="30.198"/>
<line fill="none" stroke="#FFFFFF" stroke-width="0.5" x1="31.371" y1="31.425" x2="42.717" y2="31.425"/>
<line fill="none" stroke="#FFFFFF" stroke-width="0.5" x1="31.371" y1="28.97" x2="42.717" y2="28.97"/>
<line fill="none" stroke="#FFFFFF" stroke-width="0.5" x1="34.135" y1="20.03" x2="34.135" y2="28.941"/>
<line fill="none" stroke="#FFFFFF" stroke-width="0.5" x1="32.907" y1="20.03" x2="32.907" y2="28.941"/>
<line fill="none" stroke="#FFFFFF" stroke-width="0.5" x1="35.363" y1="20.03" x2="35.363" y2="28.941"/>
<line fill="none" stroke="#FFFFFF" stroke-width="0.5" x1="43.967" y1="17.345" x2="43.967" y2="31.636"/>
<line fill="none" stroke="#FFFFFF" stroke-width="0.5" x1="42.739" y1="17.345" x2="42.739" y2="31.636"/>
<line fill="none" stroke="#FFFFFF" stroke-width="0.5" x1="45.195" y1="17.345" x2="45.195" y2="31.636"/>
<line fill="none" stroke="#FFFFFF" stroke-width="0.5" x1="49.96" y1="24.61" x2="58.856" y2="24.61"/>
<line fill="none" stroke="#FFFFFF" stroke-width="0.5" x1="49.96" y1="25.838" x2="58.856" y2="25.838"/>
<line fill="none" stroke="#FFFFFF" stroke-width="0.5" x1="49.96" y1="23.382" x2="58.856" y2="23.382"/>
<line fill="none" stroke="#FFFFFF" stroke-width="0.5" x1="49.96" y1="18.789" x2="61.532" y2="18.789"/>
<line fill="none" stroke="#FFFFFF" stroke-width="0.5" x1="49.96" y1="20.016" x2="61.532" y2="20.016"/>
<line fill="none" stroke="#FFFFFF" stroke-width="0.5" x1="49.96" y1="17.561" x2="61.532" y2="17.561"/>
<line fill="none" stroke="#FFFFFF" stroke-width="0.5" x1="48.699" y1="17.345" x2="48.699" y2="31.623"/>
<line fill="none" stroke="#FFFFFF" stroke-width="0.5" x1="47.47" y1="17.345" x2="47.47" y2="31.623"/>
<line fill="none" stroke="#FFFFFF" stroke-width="0.5" x1="49.927" y1="17.345" x2="49.927" y2="31.623"/>
<line fill="none" stroke="#FFFFFF" stroke-width="0.5" x1="60.084" y1="20.023" x2="60.084" y2="31.623"/>
<line fill="none" stroke="#FFFFFF" stroke-width="0.5" x1="58.856" y1="20.023" x2="58.856" y2="31.623"/>
<line fill="none" stroke="#FFFFFF" stroke-width="0.5" x1="61.312" y1="20.023" x2="61.312" y2="31.623"/>
<line fill="none" stroke="#FFFFFF" stroke-width="0.5" x1="86.921" y1="24.61" x2="95.817" y2="24.61"/>
<line fill="none" stroke="#FFFFFF" stroke-width="0.5" x1="86.921" y1="25.838" x2="95.817" y2="25.838"/>
<line fill="none" stroke="#FFFFFF" stroke-width="0.5" x1="86.921" y1="23.382" x2="95.817" y2="23.382"/>
<line fill="none" stroke="#FFFFFF" stroke-width="0.5" x1="86.921" y1="18.789" x2="98.493" y2="18.789"/>
<line fill="none" stroke="#FFFFFF" stroke-width="0.5" x1="86.921" y1="20.016" x2="98.493" y2="20.016"/>
<line fill="none" stroke="#FFFFFF" stroke-width="0.5" x1="86.921" y1="17.561" x2="98.493" y2="17.561"/>
<line fill="none" stroke="#FFFFFF" stroke-width="0.5" x1="85.66" y1="17.345" x2="85.66" y2="31.623"/>
<line fill="none" stroke="#FFFFFF" stroke-width="0.5" x1="84.433" y1="17.345" x2="84.433" y2="31.623"/>
<line fill="none" stroke="#FFFFFF" stroke-width="0.5" x1="86.888" y1="17.345" x2="86.888" y2="31.623"/>
<line fill="none" stroke="#FFFFFF" stroke-width="0.5" x1="97.045" y1="20.023" x2="97.045" y2="31.623"/>
<line fill="none" stroke="#FFFFFF" stroke-width="0.5" x1="95.817" y1="20.023" x2="95.817" y2="31.623"/>
<line fill="none" stroke="#FFFFFF" stroke-width="0.5" x1="98.273" y1="20.023" x2="98.273" y2="31.623"/>
<line fill="none" stroke="#FFFFFF" stroke-width="0.5" x1="66.032" y1="18.789" x2="77.592" y2="18.789"/>
<line fill="none" stroke="#FFFFFF" stroke-width="0.5" x1="66.032" y1="20.016" x2="77.592" y2="20.016"/>
<line fill="none" stroke="#FFFFFF" stroke-width="0.5" x1="66.032" y1="17.561" x2="77.592" y2="17.561"/>
<line fill="none" stroke="#FFFFFF" stroke-width="0.5" x1="64.771" y1="17.345" x2="64.771" y2="31.623"/>
<line fill="none" stroke="#FFFFFF" stroke-width="0.5" x1="63.544" y1="17.345" x2="63.544" y2="31.623"/>
<line fill="none" stroke="#FFFFFF" stroke-width="0.5" x1="66" y1="17.345" x2="66" y2="31.623"/>
<line fill="none" stroke="#FFFFFF" stroke-width="0.5" x1="76.157" y1="20.023" x2="76.157" y2="31.623"/>
<line fill="none" stroke="#FFFFFF" stroke-width="0.5" x1="74.929" y1="20.023" x2="74.929" y2="31.623"/>
<line fill="none" stroke="#FFFFFF" stroke-width="0.5" x1="77.386" y1="20.023" x2="77.386" y2="31.623"/>
<line fill="none" stroke="#FFFFFF" stroke-width="0.5" x1="118.91" y1="18.788" x2="130.472" y2="18.788"/>
<line fill="none" stroke="#FFFFFF" stroke-width="0.5" x1="118.91" y1="20.016" x2="130.472" y2="20.016"/>
<line fill="none" stroke="#FFFFFF" stroke-width="0.5" x1="118.91" y1="17.56" x2="130.472" y2="17.56"/>
<line fill="none" stroke="#FFFFFF" stroke-width="0.5" x1="118.91" y1="24.666" x2="130.472" y2="24.666"/>
<line fill="none" stroke="#FFFFFF" stroke-width="0.5" x1="118.91" y1="25.893" x2="130.472" y2="25.893"/>
<line fill="none" stroke="#FFFFFF" stroke-width="0.5" x1="118.91" y1="23.438" x2="130.472" y2="23.438"/>
<line fill="none" stroke="#FFFFFF" stroke-width="0.5" x1="116.21" y1="30.177" x2="130.472" y2="30.177"/>
<line fill="none" stroke="#FFFFFF" stroke-width="0.5" x1="116.21" y1="31.405" x2="130.472" y2="31.405"/>
<line fill="none" stroke="#FFFFFF" stroke-width="0.5" x1="116.21" y1="28.948" x2="130.472" y2="28.948"/>
<line fill="none" stroke="#FFFFFF" stroke-width="0.5" x1="117.657" y1="17.347" x2="117.657" y2="29.103"/>
<line fill="none" stroke="#FFFFFF" stroke-width="0.5" x1="116.429" y1="17.347" x2="116.429" y2="29.103"/>
<line fill="none" stroke="#FFFFFF" stroke-width="0.5" x1="118.886" y1="17.347" x2="118.886" y2="29.103"/>
<line fill="none" stroke="#FFFFFF" stroke-width="0.5" x1="100.294" y1="18.807" x2="114.343" y2="18.807"/>
<line fill="none" stroke="#FFFFFF" stroke-width="0.5" x1="100.294" y1="20.033" x2="114.343" y2="20.033"/>
<line fill="none" stroke="#FFFFFF" stroke-width="0.5" x1="100.294" y1="17.583" x2="114.343" y2="17.583"/>
<line fill="none" stroke="#FFFFFF" stroke-width="0.5" x1="102.969" y1="30.181" x2="114.573" y2="30.181"/>
<line fill="none" stroke="#FFFFFF" stroke-width="0.5" x1="102.969" y1="31.409" x2="114.573" y2="31.409"/>
<line fill="none" stroke="#FFFFFF" stroke-width="0.5" x1="102.969" y1="28.952" x2="114.573" y2="28.952"/>
<line fill="none" stroke="#FFFFFF" stroke-width="0.5" x1="108.916" y1="24.516" x2="111.952" y2="24.516"/>
<line fill="none" stroke="#FFFFFF" stroke-width="0.5" x1="108.916" y1="25.744" x2="111.952" y2="25.744"/>
<line fill="none" stroke="#FFFFFF" stroke-width="0.5" x1="108.916" y1="23.289" x2="111.952" y2="23.289"/>
<line fill="none" stroke="#FFFFFF" stroke-width="0.5" x1="101.743" y1="20.166" x2="101.743" y2="31.623"/>
<line fill="none" stroke="#FFFFFF" stroke-width="0.5" x1="100.516" y1="20.166" x2="100.516" y2="31.623"/>
<line fill="none" stroke="#FFFFFF" stroke-width="0.5" x1="102.972" y1="20.166" x2="102.972" y2="31.623"/>
<line fill="none" stroke="#FFFFFF" stroke-width="0.5" x1="113.137" y1="23.078" x2="113.137" y2="29.101"/>
<line fill="none" stroke="#FFFFFF" stroke-width="0.5" x1="111.908" y1="23.078" x2="111.908" y2="29.101"/>
<line fill="none" stroke="#FFFFFF" stroke-width="0.5" x1="114.339" y1="23.078" x2="114.339" y2="29.101"/>
<line fill="none" stroke="#FFFFFF" stroke-width="0.5" x1="18.341" y1="24.633" x2="30.027" y2="24.633"/>
<line fill="none" stroke="#FFFFFF" stroke-width="0.5" x1="18.341" y1="25.862" x2="30.027" y2="25.862"/>
<line fill="none" stroke="#FFFFFF" stroke-width="0.5" x1="18.341" y1="23.406" x2="30.027" y2="23.406"/>
<line fill="none" stroke="#FFFFFF" stroke-width="0.5" x1="18.349" y1="18.967" x2="27.362" y2="18.967"/>
<line fill="none" stroke="#FFFFFF" stroke-width="0.5" x1="18.349" y1="20.195" x2="27.362" y2="20.195"/>
<line fill="none" stroke="#FFFFFF" stroke-width="0.5" x1="18.349" y1="17.74" x2="27.362" y2="17.74"/>
<line fill="none" stroke="#FFFFFF" stroke-width="0.5" x1="17.101" y1="17.527" x2="17.101" y2="31.632"/>
<line fill="none" stroke="#FFFFFF" stroke-width="0.5" x1="15.873" y1="17.527" x2="15.873" y2="31.632"/>
<line fill="none" stroke="#FFFFFF" stroke-width="0.5" x1="18.33" y1="17.527" x2="18.33" y2="31.632"/>
<line fill="none" stroke="#FFFFFF" stroke-width="0.5" x1="24.062" y1="25.885" x2="24.062" y2="31.632"/>
<line fill="none" stroke="#FFFFFF" stroke-width="0.5" x1="25.289" y1="25.885" x2="25.289" y2="31.632"/>
<line fill="none" stroke="#FFFFFF" stroke-width="0.5" x1="28.582" y1="17.527" x2="28.582" y2="23.387"/>
<line fill="none" stroke="#FFFFFF" stroke-width="0.5" x1="27.336" y1="17.527" x2="27.336" y2="23.387"/>
<line fill="none" stroke="#FFFFFF" stroke-width="0.5" x1="26.518" y1="25.885" x2="26.518" y2="31.632"/>
<line fill="none" stroke="#FFFFFF" stroke-width="0.5" x1="29.828" y1="17.527" x2="29.828" y2="23.387"/>
</svg>
